# xmcd
#
# Track frame offsets:
#	187
#	16500
#	32830
#	51567
#	63970
#	82827
#	98522
#	111587
#	125217
#	140115
#
# Disc length: 2054 seconds
# Revision: 0
# Processed by: cddbd v1.5.2PL0 Copyright (c) Steve Scherf et al.
# Submitted via: dBpowerAMP V12.0
#
DISCID=8708040a
DTITLE=LarryGatlin&TheGatlinBrothers,Seminole,TX - Cookin'UpAStorm
DYEAR=1990
DGENRE=Country
TTITLE0=Somebody's Number One
TTITLE1=Country Girl Heart
TTITLE2=If This Isn't Love
TTITLE3=Just Might Catch My Dreams
TTITLE4=The Big Time Again
TTITLE5=Ain't Love A Kick In The Heart
TTITLE6=Angel Loose In Houston
TTITLE7=Gonna Have To Cross The Line
TTITLE8=The Prodigal Son
TTITLE9=Boogie And Beethovan
EXTD=
EXTT0=
EXTT1=
EXTT2=
EXTT3=
EXTT4=
EXTT5=
EXTT6=
EXTT7=
EXTT8=
EXTT9=
PLAYORDER=
